<svg width="36" height="36" viewBox="0 0 36 36" fill="none" xmlns="http://www.w3.org/2000/svg">
<g clip-path="url(#clip0_528_30578)">
<path d="M28.125 21.375L22.5 27L13.5 24.75L5.62501 19.125M28.125 21.375L22.5 16.875C19.8281 19.5652 16.4855 19.6734 14.0231 18.0998C13.8805 18.0097 13.76 17.8885 13.6705 17.7454C13.581 17.6023 13.5249 17.4409 13.5063 17.2732C13.4876 17.1055 13.507 16.9357 13.5628 16.7765C13.6187 16.6172 13.7097 16.4726 13.8291 16.3533L20.25 10.125H25.875M28.125 21.375L30.375 19.125M5.62501 19.125L1.74658 17.1858C1.48001 17.0522 1.2774 16.8182 1.18327 16.5352C1.08913 16.2523 1.11117 15.9436 1.24454 15.6769L4.83329 8.49656C4.89946 8.36439 4.99102 8.24656 5.10274 8.14979C5.21447 8.05302 5.34416 7.97921 5.48442 7.93259C5.62468 7.88597 5.77276 7.86744 5.92018 7.87807C6.0676 7.8887 6.21148 7.92827 6.34361 7.99453L10.2206 9.93234M5.62501 19.125L10.2206 9.93234M10.2206 9.93234L18 7.875L25.7794 9.93234M25.7794 9.93234L29.6564 7.99453C29.7885 7.92827 29.9324 7.8887 30.0798 7.87807C30.2273 7.86744 30.3753 7.88597 30.5156 7.93259C30.6559 7.97921 30.7856 8.05302 30.8973 8.14979C31.009 8.24656 31.1006 8.36439 31.1667 8.49656L34.7555 15.6769C34.8889 15.9436 34.9109 16.2523 34.8168 16.5352C34.7226 16.8182 34.52 17.0522 34.2535 17.1858L30.375 19.125M25.7794 9.93234L30.375 19.125M17.4459 30.375L11.5791 28.9083L7.87501 26.2617" stroke="url(#paint0_linear_528_30578)" stroke-width="2" stroke-linecap="round" stroke-linejoin="round"/>
</g>
<defs>
<linearGradient id="paint0_linear_528_30578" x1="1.12573" y1="7.875" x2="37.9867" y2="15.6849" gradientUnits="userSpaceOnUse">
<stop stop-color="#FF174F"/>
<stop offset="1" stop-color="#5B0FFE"/>
</linearGradient>
<clipPath id="clip0_528_30578">
<rect width="36" height="36" fill="white"/>
</clipPath>
</defs>
</svg>
