<svg width="29" height="32" viewBox="0 0 29 32" fill="none" xmlns="http://www.w3.org/2000/svg">
<path d="M15 5.875C13.7574 5.875 12.75 6.88236 12.75 8.125C12.75 9.36764 13.7574 10.375 15 10.375C16.2426 10.375 17.25 9.36764 17.25 8.125C17.25 6.88236 16.2426 5.875 15 5.875ZM15 5.875V1.42985M13.875 28.375H7.125C6.82663 28.375 6.54048 28.2565 6.3295 28.0455C6.11852 27.8345 6 27.5484 6 27.25V22.1608L2.12156 20.3847C1.86529 20.2562 1.66771 20.0348 1.56918 19.7656C1.47065 19.4964 1.4786 19.1998 1.5914 18.9363L4.875 12.625C4.875 10.7074 5.36518 8.82156 6.299 7.14665C7.23282 5.47175 8.57928 4.06334 10.2105 3.05518C11.8418 2.04702 13.7036 1.47257 15.6193 1.38637C17.535 1.30018 19.441 1.7051 21.1561 2.5627C22.8713 3.42029 24.3388 4.70208 25.4193 6.28636C26.4998 7.87063 27.1573 9.7048 27.3295 11.6147C27.5018 13.5246 27.1829 15.4468 26.4033 17.1988C25.6236 18.9508 24.4091 20.4744 22.875 21.625L24 30.625M27.1472 10.375H22.875L18.69 15.3967M19.5 17.125C19.5 18.3676 18.4926 19.375 17.25 19.375C16.0074 19.375 15 18.3676 15 17.125C15 15.8824 16.0074 14.875 17.25 14.875C18.4926 14.875 19.5 15.8824 19.5 17.125Z" stroke="url(#paint0_linear_2565_34348)" stroke-width="2" stroke-linecap="round" stroke-linejoin="round"/>
<defs>
<linearGradient id="paint0_linear_2565_34348" x1="1.50064" y1="1.375" x2="30.5759" y2="5.00805" gradientUnits="userSpaceOnUse">
<stop stop-color="#FF174F"/>
<stop offset="1" stop-color="#5B0FFE"/>
</linearGradient>
</defs>
</svg>
