<svg width="26" height="30" viewBox="0 0 26 30" fill="none" xmlns="http://www.w3.org/2000/svg">
<path d="M16.375 1.5V9.375H24.25M16.375 1.5L24.25 9.375M16.375 1.5H2.875C2.57663 1.5 2.29048 1.61853 2.07951 1.82951C1.86853 2.04048 1.75 2.32663 1.75 2.625V27.375C1.75 27.6734 1.86853 27.9595 2.07951 28.1705C2.29048 28.3815 2.57663 28.5 2.875 28.5H23.125C23.4234 28.5 23.7095 28.3815 23.9205 28.1705C24.1315 27.9595 24.25 27.6734 24.25 27.375V9.375M16.375 15L19.75 18.375L16.375 21.75M9.625 15L6.25 18.375L9.625 21.75" stroke="url(#paint0_linear_2565_34465)" stroke-width="2" stroke-linecap="round" stroke-linejoin="round"/>
<defs>
<linearGradient id="paint0_linear_2565_34465" x1="1.75" y1="1.5" x2="27.0773" y2="4.48134" gradientUnits="userSpaceOnUse">
<stop stop-color="#FF174F"/>
<stop offset="1" stop-color="#5B0FFE"/>
</linearGradient>
</defs>
</svg>
