<svg width="26" height="32" viewBox="0 0 26 32" fill="none" xmlns="http://www.w3.org/2000/svg">
<path d="M7.37499 30.625H18.625M15.5516 6.09143V12.1767L8.80156 19.1312V25.2164M8.80156 12.8414V19.5914M13.3016 25.2164V21.8002L15.5516 19.5914M6.06718 21.4844C4.7298 20.4396 3.64655 19.1054 2.89882 17.5819C2.15108 16.0584 1.75831 14.3853 1.74999 12.6883C1.71624 6.59078 6.63249 1.51562 12.7286 1.375C15.0911 1.31777 17.4116 2.00598 19.361 3.34197C21.3103 4.67797 22.7894 6.5939 23.5884 8.81793C24.3875 11.042 24.4658 13.4611 23.8124 15.7322C23.159 18.0033 21.807 20.0109 19.9483 21.4703C19.5383 21.7882 19.2061 22.1953 18.9768 22.6606C18.7475 23.126 18.6272 23.6375 18.625 24.1562V25C18.625 25.2984 18.5065 25.5845 18.2955 25.7955C18.0845 26.0065 17.7984 26.125 17.5 26.125H8.49999C8.20162 26.125 7.91547 26.0065 7.70449 25.7955C7.49352 25.5845 7.37499 25.2984 7.37499 25V24.1562C7.37445 23.6408 7.25638 23.1322 7.02976 22.6692C6.80314 22.2062 6.47394 21.801 6.06718 21.4844ZM18.9266 17.9039C18.9266 16.9719 18.171 16.2164 17.2391 16.2164C16.3071 16.2164 15.5516 16.9719 15.5516 17.9039C15.5516 18.8359 16.3071 19.5914 17.2391 19.5914C18.171 19.5914 18.9266 18.8359 18.9266 17.9039ZM9.92656 11.1539C9.92656 10.2219 9.17104 9.46643 8.23906 9.46643C7.30708 9.46643 6.55156 10.2219 6.55156 11.1539C6.55156 12.0859 7.30708 12.8414 8.23906 12.8414C9.17104 12.8414 9.92656 12.0859 9.92656 11.1539Z" stroke="url(#paint0_linear_2565_39983)" stroke-width="2" stroke-linecap="round" stroke-linejoin="round"/>
<defs>
<linearGradient id="paint0_linear_2565_39983" x1="1.74982" y1="1.3717" x2="27.1298" y2="4.12926" gradientUnits="userSpaceOnUse">
<stop stop-color="#FF174F"/>
<stop offset="1" stop-color="#5B0FFE"/>
</linearGradient>
</defs>
</svg>
