<svg width="32" height="30" viewBox="0 0 32 30" fill="none" xmlns="http://www.w3.org/2000/svg">
<path d="M10.9516 21.75C11.6496 23.7244 12.9428 25.4339 14.6529 26.6427C16.3629 27.8516 18.4058 28.5005 20.5 28.5H29.5C29.7984 28.5 30.0845 28.3815 30.2955 28.1705C30.5065 27.9595 30.625 27.6734 30.625 27.375V18.375C30.6249 15.7857 29.6328 13.2947 27.8526 11.4144C26.0725 9.53403 23.6395 8.40716 21.0541 8.26547M11.5 21.75H2.5C2.20163 21.75 1.91548 21.6315 1.7045 21.4205C1.49353 21.2095 1.375 20.9234 1.375 20.625V11.625C1.375 8.93968 2.44174 6.36435 4.34054 4.46554C6.23935 2.56674 8.81468 1.5 11.5 1.5C14.1853 1.5 16.7606 2.56674 18.6595 4.46554C20.5583 6.36435 21.625 8.93968 21.625 11.625C21.625 14.3103 20.5583 16.8856 18.6595 18.7845C16.7606 20.6833 14.1853 21.75 11.5 21.75Z" stroke="url(#paint0_linear_2565_34352)" stroke-width="2" stroke-linecap="round" stroke-linejoin="round"/>
<defs>
<linearGradient id="paint0_linear_2565_34352" x1="1.375" y1="1.5" x2="33.9929" y2="6.49139" gradientUnits="userSpaceOnUse">
<stop stop-color="#FF174F"/>
<stop offset="1" stop-color="#5B0FFE"/>
</linearGradient>
</defs>
</svg>
